<svg enable-background="new 0 0 64 64" height="64" viewBox="0 0 64 64" width="64" xmlns="http://www.w3.org/2000/svg"><g fill="#1d1d1b"><path d="m46.549 18.679h-28.285c-1.105 0-2 .896-2 2s.895 2 2 2h28.285c1.105 0 2-.896 2-2s-.895-2-2-2z"/><path d="m46.549 30.119h-28.285c-1.105 0-2 .896-2 2s.895 2 2 2h28.285c1.105 0 2-.896 2-2s-.895-2-2-2z"/><path d="m46.549 41.583h-28.285c-1.105 0-2 .896-2 2s.895 2 2 2h28.285c1.105 0 2-.896 2-2s-.895-2-2-2z"/><path d="m31.998 0c-17.644 0-31.998 14.355-31.998 32s14.354 32 31.998 32c17.647 0 32.002-14.355 32.002-32s-14.355-32-32.002-32zm0 60c-15.437 0-27.998-12.561-27.998-28s12.561-28 27.998-28c15.44 0 28.002 12.561 28.002 28s-12.562 28-28.002 28z"/></g></svg>